<svg xmlns="http://www.w3.org/2000/svg" width="309.77" height="696.43" viewBox="0 0 309.77 696.43"><g id="Layer_2" data-name="Layer 2"><g id="Layer_1-2" data-name="Layer 1"><path d="M32.52,279.88H89.35a2,2,0,0,1,2,2v28a2,2,0,0,1-2,2H32.52a2,2,0,0,1-2-2v-28A2,2,0,0,1,32.52,279.88Z" fill="none" stroke="#aadaf1" stroke-linecap="round" stroke-linejoin="round" stroke-width="2"/><path d="M63,247.82H119.8a2,2,0,0,1,2,2v28a2,2,0,0,1-2,2H63a2,2,0,0,1-2-2v-28A2,2,0,0,1,63,247.82Z" fill="none" stroke="#aadaf1" stroke-linecap="round" stroke-linejoin="round" stroke-width="2"/><path d="M93.41,279.88h56.84a2,2,0,0,1,2,2v28a2,2,0,0,1-2,2H93.41a2,2,0,0,1-2-2v-28A2,2,0,0,1,93.41,279.88Z" fill="none" stroke="#aadaf1" stroke-linecap="round" stroke-linejoin="round" stroke-width="2"/><path d="M3,312H59.87a2,2,0,0,1,2,2v28a2,2,0,0,1-2,2H3a2,2,0,0,1-2-2V314A2,2,0,0,1,3,312Z" fill="none" stroke="#aadaf1" stroke-linecap="round" stroke-linejoin="round" stroke-width="2"/><path d="M112.82,635.61h29.59v29.07H112.82Z" fill="#f77f89" fill-rule="evenodd"/><path d="M224,634.77h29.6v29.06H224Z" fill="#f77f89" fill-rule="evenodd"/><path d="M60.34,72.58,80,68.46a5.23,5.23,0,0,1,6.2,4l8.09,37.5a5.15,5.15,0,0,1-4,6.11l-19.64,4.13a5.23,5.23,0,0,1-6.2-4L56.32,78.7A5.16,5.16,0,0,1,60.34,72.58Z" fill="#9b9b9b" fill-rule="evenodd"/><path d="M66.71,133c-2.42-3.83-20.65-39.42-15-42.44s8.8.13,10.18,3.4c3-3.19,9.19-7,11.75-4.22,3,3.19.51,8.29-1.74,10.28,2.57-.9,4.94-1.43,7,1.45,2.63,3.58-.75,13.83-2.55,15.37l9.5,9S69.12,136.79,66.71,133Z" fill="#f77f89" fill-rule="evenodd"/><path d="M228.86,352.35c0-15.56,15.54-28.17,34.72-28.17s34.71,12.61,34.71,28.17-15.54,28.17-34.71,28.17S228.86,367.91,228.86,352.35Z" fill="#bf9111" fill-rule="evenodd"/><path d="M199,31c26.73,0,40,24.32,41.28,32.77s-.37,26.25,2,33.38c6.58,19.4,30.54,29.89,30.54,49.52,0,45.42-50,32.27-65.21,31.69s-55.25-1.86-55.25-29.11c0-10.84,7.37-10.84,7.5-24.94.11-11.92-6.55-15.29-6.55-43.85C153.38,68.78,169.23,30.86,199,31Z" fill-rule="evenodd"/><path d="M161.51,267.28c-.72-7.76-5.4-86,18.14-118a52,52,0,0,1-1.73-7.92c-8.63,6.22-40.9,39-45,44.45C129.19,181.07,89,124.75,87,124.08s-21.64,8.45-22.07,10.54,47.84,95.17,60,99.09c5.1,1.64,12.3-3.39,14.55-4.12.31,5-44.72,136-1.74,137C163.29,334.72,162.22,275,161.51,267.28Z" fill="#f7d167" fill-rule="evenodd"/><path d="M150.83,291.05,91,639.25l52.86-.22,39.26-166.56,19.64,169.37,50.7-.65,3.47-349.7Z" fill="#3b4161" fill-rule="evenodd"/><path d="M229.77,299.36c-5.49,1.17-74.48-.23-80.78-3.74s-5-14.88,10.53-18.72c-5.5-1.37-17.18-8.07-1.43-10.42,2.81-28.15-9.39-131.2,39.12-133,34.29-5.05,40,25.06,40,25.06S235.26,298.19,229.77,299.36Z" fill="#6367fd" fill-rule="evenodd"/><path d="M197.2,44c-18.43,0-33.37,17.37-33.37,38.79s14.94,38.75,33.37,38.75A30.38,30.38,0,0,0,218,112.85c-.69-9.72-.78-19.59.72-24.75,2.32-6.4,1.48-3.72-.9-4l2.09-1.78c0-4.45.74-1.41,5.19-1.41l5.28-.22C229.47,60.27,215,44,197.2,44Z" fill="#f77f89" fill-rule="evenodd"/><path d="M159.1,76c7.14-1.88,12.73-5.33,18.89-16.3,7.34,6.75,13.58,6.88,24.48,4.74-.64,5.33-1.16,11.36,5.85,12.08s27.73,9.74,27.73,9.74l-1-23.64L216.76,42.12l-21.36-3.9-18.83,8.83L164.81,62.31S152,77.83,159.1,76Z" fill-rule="evenodd"/><path d="M206.42,79.08A14.55,14.55,0,1,1,221,93.63,14.54,14.54,0,0,1,206.42,79.08Z" fill="#f77f89" fill-rule="evenodd"/><path d="M192.14,116.21c1.41,6.87.26,15.77-1.41,22.12,4.93,2.82,24.67,3.79,30.67-.53-2.29-8.37-5.78-39-2.67-49.69C210.9,87.43,190.73,109.33,192.14,116.21Z" fill="#f77f89" fill-rule="evenodd"/><path d="M230.62,327a117.78,117.78,0,0,1-7,10.26s-6.57-2.08-8.37.33-13.81,17.6-7.91,22.77,12.52-7.74,14.38-9.42a201.41,201.41,0,0,1,17.29,17.82s-.05-9.09.95-12.29,7.16-11.74,9.22-14S234,321.32,230.62,327Z" fill="#f77f89" fill-rule="evenodd"/><path d="M223.51,138.38c-3.13,7.9-6.87,15.62-16.56,21.28-.55,8.85,7.71,130.16,14.56,142.72a60.91,60.91,0,0,0,10.23,13.41c-2.11,5.66-4,10.79-3.22,12.43,1,2.14,18.37,17,20.72,16.35,1.54-.42,5.91-4.94,9.59-9,17,9.8,32.69,16.78,33,25.93,0,6.54-2.2,8.59-4.89,11.74,3.88-1.92,13.19-11.73,13.39-23.8.25-15.22-14.42-41.84-17-48.59,4.79-5.44,21.55-28.49,25.5-48.75C298.69,212.71,258.64,139.47,223.51,138.38Z" fill="#f7d167" fill-rule="evenodd"/><path d="M236.06,210.55c3.44,5.47,27.33,41.52,27.33,41.52S241,298,233.25,314" fill="none" stroke="#ff3274" stroke-linecap="round" stroke-linejoin="round" stroke-width="2"/><path d="M298.05,275.88a23.53,23.53,0,0,1,2.9-43.5" fill="none" stroke="#ff3274" stroke-linecap="round" stroke-linejoin="round" stroke-width="2"/><path d="M271.68,244.06l-8.3,8" fill="none" stroke="#ff3274" stroke-linecap="round" stroke-linejoin="round" stroke-width="2"/><path d="M273.63,256.79l-10.25-5.32" fill="none" stroke="#ff3274" stroke-linecap="round" stroke-linejoin="round" stroke-width="2"/><path d="M233.55,319.39c2.32,2.64,17,13.07,21,14.77" fill="none" stroke="#ff3274" stroke-linecap="round" stroke-linejoin="round" stroke-width="2"/><path d="M111.48,218.38a15.91,15.91,0,0,1,27.38,11v.37" fill="none" stroke="#ff3274" stroke-linecap="round" stroke-linejoin="round" stroke-width="2"/><path d="M132.87,185.79,124.66,198" fill="none" stroke="#ff3274" stroke-linecap="round" stroke-linejoin="round" stroke-width="2"/><path d="M140.19,195.39l-7.07-9.81" fill="none" stroke="#ff3274" stroke-linecap="round" stroke-linejoin="round" stroke-width="2"/><path d="M93.21,131.65,70.27,146.26" fill="none" stroke="#ff3274" stroke-linecap="round" stroke-linejoin="round" stroke-width="2"/><path d="M183.06,472.63c-1.44-9.76-6.92-93.31-3.06-122.39" fill="none" stroke="#737999" stroke-linecap="round" stroke-linejoin="round" stroke-width="2"/><path d="M239.53,495l15.41-6.14-16.58-10.34" fill="none" stroke="#737999" stroke-linecap="round" stroke-linejoin="round" stroke-width="2"/><path d="M161.51,497.85l16.17-2.39-10.52-11.3" fill="none" stroke="#737999" stroke-linecap="round" stroke-linejoin="round" stroke-width="2"/><path d="M147.07,312.92c5,.68,53,3.33,84,1.83" fill="none" stroke="#737999" stroke-linecap="round" stroke-linejoin="round" stroke-width="2"/><path d="M94.38,619.39l54.44-1.54" fill="none" stroke="#737999" stroke-linecap="round" stroke-linejoin="round" stroke-width="2"/><path d="M200.56,623.17l53.07-1.51" fill="none" stroke="#737999" stroke-linecap="round" stroke-linejoin="round" stroke-width="2"/><path d="M221.55,351.08l22.18,22.39" fill="none" stroke="#737999" stroke-linecap="round" stroke-linejoin="round" stroke-width="2"/><path d="M208.13,337.54l4.15,4.18" fill="none" stroke="#737999" stroke-linecap="round" stroke-linejoin="round" stroke-width="2"/><path d="M218.43,641.64,203,315.17" fill="none" stroke="#737999" stroke-linecap="round" stroke-linejoin="round" stroke-width="2"/><path d="M179.52,417.94,126,639.1" fill="none" stroke="#737999" stroke-linecap="round" stroke-linejoin="round" stroke-width="2"/><path d="M190.73,82.65c0-2,.82-3.57,1.84-3.57s1.85,1.6,1.85,3.57-.83,3.56-1.85,3.56S190.73,84.61,190.73,82.65Z" fill="#b5545c" fill-rule="evenodd"/><path d="M169.59,82.65c0-2,.83-3.57,1.85-3.57s1.84,1.6,1.84,3.57-.82,3.56-1.84,3.56S169.59,84.61,169.59,82.65Z" fill="#b5545c" fill-rule="evenodd"/><path d="M180.13,83.31c.3,2.78-.3,9-2.4,11.72" fill="none" stroke="#b5545c" stroke-linecap="round" stroke-linejoin="round" stroke-width="2"/><path d="M193.74,100.55a4.58,4.58,0,0,1,.14,1.12,4.41,4.41,0,0,1-6,4.14" fill="none" stroke="#b5545c" stroke-linecap="round" stroke-linejoin="round" stroke-width="2"/><path d="M192.61,121.14a29,29,0,0,0,4.59.37,28.43,28.43,0,0,0,11.53-2.46" fill="none" stroke="#b5545c" stroke-linecap="round" stroke-linejoin="round" stroke-width="2"/><path d="M212,77.33a9.41,9.41,0,1,1,9.3,10.85,9.77,9.77,0,0,1-2.66-.38" fill="none" stroke="#b5545c" stroke-linecap="round" stroke-linejoin="round" stroke-width="2"/><path d="M281.46,302.89l-20.85,30" fill="none" stroke="#ff3274" stroke-linecap="round" stroke-linejoin="round" stroke-width="2"/><path d="M271.09,37.17h11.54c.54,0,1,.64,1,1.43v7.19c0,.79-.45,1.42-1,1.42H271.09c-.54,0-1-.63-1-1.42V38.6C270.1,37.81,270.55,37.17,271.09,37.17Z" fill="#ff3274" fill-rule="evenodd"/><path d="M288.61,42.65v4.42c0,.13-.09.18-.19.12L284.58,45l-3.83-2.21c-.11-.06-.11-.16,0-.22l3.83-2.22,3.84-2.21a.12.12,0,0,1,.19.11Z" fill="#ff3274" fill-rule="evenodd"/><path d="M262.36,42.19a17,17,0,1,1,17,17A17,17,0,0,1,262.36,42.19Z" fill="none" stroke="#ff3274" stroke-linecap="round" stroke-linejoin="round" stroke-width="2"/><path d="M40.44,1H284a24.74,24.74,0,0,1,24.74,24.74V149.81A24.74,24.74,0,0,1,284,174.55H40.44A24.74,24.74,0,0,1,15.7,149.81V25.74A24.74,24.74,0,0,1,40.44,1Z" fill="none" stroke="#9b9b9b" stroke-linecap="round" stroke-linejoin="round" stroke-width="2"/><path d="M307.18,16.87H17.55" fill="none" stroke="#9b9b9b" stroke-linecap="round" stroke-linejoin="round" stroke-width="2"/><path d="M33.49,9.22A3.52,3.52,0,1,1,37,12.74,3.51,3.51,0,0,1,33.49,9.22Z" fill="none" stroke="#ff3274" stroke-linecap="round" stroke-linejoin="round" stroke-width="2"/><path d="M47.36,9.22a3.52,3.52,0,1,1,3.52,3.52A3.52,3.52,0,0,1,47.36,9.22Z" fill="none" stroke="#ff3274" stroke-linecap="round" stroke-linejoin="round" stroke-width="2"/><path d="M61.24,9.22a3.52,3.52,0,1,1,3.52,3.52A3.51,3.51,0,0,1,61.24,9.22Z" fill="none" stroke="#ff3274" stroke-linecap="round" stroke-linejoin="round" stroke-width="2"/><path d="M224,652.71l29.6-.25-.29,42.24-91.5-.58c.35-8.69,17.18-24.13,37.7-27.19S224,655.47,224,652.71Z" fill="#9b9b9b" fill-rule="evenodd"/><path d="M178.4,674.76a51.39,51.39,0,0,1,9.61,11" fill="none" stroke="#4e4242" stroke-linecap="round" stroke-linejoin="round" stroke-width="2"/><path d="M192.3,669.26a50.85,50.85,0,0,1,9.61,11" fill="none" stroke="#4e4242" stroke-linecap="round" stroke-linejoin="round" stroke-width="2"/><path d="M199.8,668.39c-25.87-27.93,23.55-35.07.09,0" fill="none" stroke="#4e4242" stroke-linecap="round" stroke-linejoin="round" stroke-width="2"/><path d="M200,668.34c27.62-32.63,43.37,21.43,0,.1" fill="none" stroke="#4e4242" stroke-linecap="round" stroke-linejoin="round" stroke-width="2"/><path d="M253.58,659.79l-34.15,0" fill="none" stroke="#4e4242" stroke-linecap="round" stroke-linejoin="round" stroke-width="2"/><path d="M253.34,694.58l-91.11-.46" fill="none" stroke="#4e4242" stroke-linecap="round" stroke-linejoin="round" stroke-width="2"/><path d="M112.82,653.56l29.59-.25-.29,42.24L50.63,695c.35-8.69,17.18-24.13,37.7-27.19S112.82,656.32,112.82,653.56Z" fill="#9b9b9b" fill-rule="evenodd"/><path d="M67.19,675.61a51.39,51.39,0,0,1,9.61,11" fill="none" stroke="#4e4242" stroke-linecap="round" stroke-linejoin="round" stroke-width="2"/><path d="M81.09,670.11a50.88,50.88,0,0,1,9.61,11" fill="none" stroke="#4e4242" stroke-linecap="round" stroke-linejoin="round" stroke-width="2"/><path d="M88.59,669.23c-25.87-27.92,23.55-35.06.09,0" fill="none" stroke="#4e4242" stroke-linecap="round" stroke-linejoin="round" stroke-width="2"/><path d="M88.78,669.19c27.62-32.64,43.36,21.43,0,.1" fill="none" stroke="#4e4242" stroke-linecap="round" stroke-linejoin="round" stroke-width="2"/><path d="M142.36,660.64l-34.15,0" fill="none" stroke="#4e4242" stroke-linecap="round" stroke-linejoin="round" stroke-width="2"/><path d="M142.12,695.43,51,695" fill="none" stroke="#4e4242" stroke-linecap="round" stroke-linejoin="round" stroke-width="2"/><path d="M56.46,112.07c-1.34-3.18-.75-15.23,6.56-19.23" fill="#f77f89" stroke="#b5545c" stroke-linecap="round" stroke-linejoin="round" stroke-width="2" fill-rule="evenodd"/><path d="M66.3,115.92c-.82-4,1.32-12.41,5.67-15.38" fill="#f77f89" stroke="#b5545c" stroke-linecap="round" stroke-linejoin="round" stroke-width="2" fill-rule="evenodd"/><path d="M207.08,159.59c6.44-4.85,13.75-14.15,16.27-20.8" fill="none" stroke="#ff3274" stroke-linecap="round" stroke-linejoin="round" stroke-width="2"/><path d="M164.32,277.83c18.89,4.09,41.39,2.66,52.39,1.43" fill="none" stroke="#4c4fd9" stroke-linecap="round" stroke-linejoin="round" stroke-width="2"/><path d="M40.57,1H284.15a24.74,24.74,0,0,1,24.74,24.74V149.81a24.74,24.74,0,0,1-24.74,24.74H40.57a24.74,24.74,0,0,1-24.74-24.74V25.74A24.74,24.74,0,0,1,40.57,1Z" fill="#fff" fill-rule="evenodd" opacity="0.26" style="isolation:isolate"/></g></g></svg>