<svg id="Layer_2" data-name="Layer 2" xmlns="http://www.w3.org/2000/svg" viewBox="0 0 800 600"><defs><style>.cls-1{fill:#f4f5f9;}.cls-2{fill:#4696ec;}.cls-3{fill:#ed6f98;}.cls-4{fill:#d35985;}.cls-5{fill:#f4e1e8;}.cls-6{fill:#2e7abf;}.cls-7{font-size:31.48px;fill:#4154af;font-family:SFCompactRounded-Bold, SF Compact Rounded;font-weight:700;}.cls-8{letter-spacing:-0.01em;}.cls-9{font-family:SFCompactRounded-Thin, SF Compact Rounded;font-weight:200;}.cls-10{letter-spacing:0em;}.cls-11{letter-spacing:0em;}.cls-12{font-size:22px;fill:#fff;font-family:SFCompactRounded-Medium, SF Compact Rounded;font-weight:500;}.cls-13{letter-spacing:0em;}</style></defs><title>covid-19-free</title><rect class="cls-1" x="580.08" y="233.75" width="132.49" height="132.49" rx="15.41" transform="translate(946.33 -346.33) rotate(90)"/><rect class="cls-1" x="423.94" y="389.81" width="132.49" height="132.49" rx="15.41" transform="translate(946.24 -34.13) rotate(90)"/><path class="cls-2" d="M647.19,306.57a21,21,0,0,1-21-21V274.16a6.34,6.34,0,0,1,6.33-6.34,1.62,1.62,0,0,1,0,3.23,3.1,3.1,0,0,0-3.1,3.11v11.45a17.73,17.73,0,1,0,35.45,0V274.16a3.1,3.1,0,0,0-3.1-3.11,1.62,1.62,0,1,1,0-3.23,6.34,6.34,0,0,1,6.33,6.34v11.45A21,21,0,0,1,647.19,306.57Z"/><path class="cls-3" d="M632.86,267.25v4.38A1.71,1.71,0,0,0,635.6,273a4.49,4.49,0,0,0,0-7.13A1.72,1.72,0,0,0,632.86,267.25Z"/><path class="cls-3" d="M661.52,267.25v4.38a1.71,1.71,0,0,1-2.74,1.37,4.51,4.51,0,0,1,0-7.13A1.71,1.71,0,0,1,661.52,267.25Z"/><path class="cls-2" d="M661.84,333.67h-5.11a11.16,11.16,0,0,1-11.15-11.15v-7.93h-10a7.93,7.93,0,0,0-7.92,7.93,1.63,1.63,0,0,1-1.62,1.63,1.59,1.59,0,0,1-1.61-1.59,11.17,11.17,0,0,1,11.15-11.2h10V305a1.62,1.62,0,1,1,3.23,0v6.4h13a11.16,11.16,0,0,1,0,22.31Zm-13-19.08v7.93a7.93,7.93,0,0,0,7.92,7.92h5.11a7.93,7.93,0,0,0,0-15.85Z"/><path class="cls-3" d="M647.19,307.38a2.42,2.42,0,0,1,0-4.84,16.88,16.88,0,0,0,7.15-1.58,2.42,2.42,0,1,1,2,4.38A21.56,21.56,0,0,1,647.19,307.38Z"/><path class="cls-3" d="M647.19,307.38a21.63,21.63,0,0,1-9.2-2,2.42,2.42,0,0,1,2-4.38,16.91,16.91,0,0,0,7.15,1.58,2.42,2.42,0,0,1,0,4.84Z"/><path class="cls-3" d="M647.19,315.4a2.43,2.43,0,0,1-2.42-2.43v-8a2.42,2.42,0,0,1,4.84,0v8A2.42,2.42,0,0,1,647.19,315.4Z"/><circle class="cls-3" cx="626.05" cy="328.09" r="6.39"/><circle class="cls-4" cx="626.05" cy="328.09" r="2.71"/><path class="cls-3" d="M484.15,491.2H458.62a6.71,6.71,0,0,1-6.72-6.71v-7a6.71,6.71,0,0,1,6.72-6.71h25.53a6.71,6.71,0,0,1,6.72,6.71v7A6.71,6.71,0,0,1,484.15,491.2Z"/><path class="cls-5" d="M484.51,470.78H458.27a4.92,4.92,0,0,1-4.92-4.92h0a4.91,4.91,0,0,1,4.92-4.91h26.24a4.91,4.91,0,0,1,4.91,4.91h0A4.91,4.91,0,0,1,484.51,470.78Z"/><rect class="cls-4" x="451.9" y="476.93" width="38.97" height="8.12"/><path class="cls-3" d="M484.3,464.61H470.51a.74.74,0,0,1,0-1.48H484.3a.74.74,0,0,1,0,1.48Z"/><path class="cls-3" d="M466.94,464.61H464a.74.74,0,0,1,0-1.48h2.92a.74.74,0,0,1,0,1.48Z"/><path class="cls-2" d="M520.17,488.46a2.64,2.64,0,0,1-2.63,2.75H498.76a2.64,2.64,0,0,1-2.63-2.75l.14-3.32.26-5.79.17-3.86a2.3,2.3,0,0,1,2.3-2.2h18.3a2.3,2.3,0,0,1,2.3,2.2l.17,3.86.25,5.79Z"/><path class="cls-5" d="M517.19,420.9H499.11l-2.21,50a2.3,2.3,0,0,0,2.3,2.4h17.9a2.3,2.3,0,0,0,2.3-2.4Z"/><path class="cls-6" d="M512.3,484.47H504a2.23,2.23,0,0,1-2.23-2.29h0A2.22,2.22,0,0,1,504,480h8.3a2.23,2.23,0,0,1,2.23,2.16h0A2.23,2.23,0,0,1,512.3,484.47Z"/><path class="cls-3" d="M502,427.87a.74.74,0,0,1-.74-.74v-4a.74.74,0,1,1,1.47,0v4A.74.74,0,0,1,502,427.87Z"/><path class="cls-3" d="M505.09,427.87a.74.74,0,0,1-.73-.74v-4a.74.74,0,1,1,1.47,0v4A.74.74,0,0,1,505.09,427.87Z"/><path class="cls-3" d="M508.17,427.87a.74.74,0,0,1-.74-.74v-4a.74.74,0,0,1,1.48,0v4A.74.74,0,0,1,508.17,427.87Z"/><path class="cls-3" d="M511.25,427.87a.74.74,0,0,1-.74-.74v-4a.74.74,0,0,1,1.48,0v4A.74.74,0,0,1,511.25,427.87Z"/><path class="cls-3" d="M514.33,427.87a.74.74,0,0,1-.74-.74v-4a.74.74,0,1,1,1.48,0v4A.74.74,0,0,1,514.33,427.87Z"/><circle class="cls-3" cx="496.9" cy="455.7" r="4.06"/><circle class="cls-4" cx="474.07" cy="471.11" r="4.06"/><circle class="cls-3" cx="476.38" cy="453.88" r="2.23"/><circle class="cls-3" cx="509.02" cy="443.63" r="2.23"/><circle class="cls-3" cx="454.93" cy="453.2" r="3.71"/><circle class="cls-3" cx="526.57" cy="477.74" r="2.57"/><circle class="cls-3" cx="475.53" cy="434.1" r="1.46"/><circle class="cls-3" cx="510.48" cy="467.85" r="1.46"/><path class="cls-1" d="M0,333H358.31a0,0,0,0,1,0,0V600a0,0,0,0,1,0,0H39.11A39.11,39.11,0,0,1,0,560.89V333a0,0,0,0,1,0,0Z" transform="translate(358.31 933.02) rotate(180)"/><rect class="cls-1" x="423.94" y="77.7" width="132.49" height="132.49" rx="15.41" transform="translate(634.13 -346.24) rotate(90)"/><rect class="cls-1" x="580.08" y="77.7" width="132.49" height="132.49" rx="15.41" transform="translate(790.28 -502.38) rotate(90)"/><rect class="cls-1" x="423.94" y="233.75" width="132.49" height="132.49" rx="15.41" transform="translate(790.18 -190.18) rotate(90)"/><rect class="cls-1" x="580.08" y="389.81" width="132.49" height="132.49" rx="15.41" transform="translate(1102.38 -190.28) rotate(90)"/><path class="cls-3" d="M532.17,156.34a2.79,2.79,0,0,0-3.41-1.91h0l-2.16.86a1.13,1.13,0,0,1-1.29-.31,11.17,11.17,0,0,0-3.77-2.86,2.78,2.78,0,0,1-1.65-2.53V148c0-.92-1.37-1.67-3-1.67s-3.05.75-3.05,1.67v1.57a2.78,2.78,0,0,1-1.63,2.52,11,11,0,0,0-3.37,2.4L506,152.44h0c-.38-.28-1.22.22-1.88,1.12s-.9,1.84-.53,2.12l3,2.2a11.15,11.15,0,0,0-.89,4.37c0,.11,0,.22,0,.34a2.76,2.76,0,0,1-1.73,2.63l-1.41.57c-1.24.49-1.74,2.17-1.11,3.73s2.14,2.42,3.38,1.93l2.27-.92a2.76,2.76,0,0,1,2.76.42,11.16,11.16,0,0,0,7,2.48,11.49,11.49,0,0,0,2-.2l1.06,2.3c.53,1.15,2.2,1.51,3.73.81s2.34-2.21,1.81-3.36l-.36-.79a2.78,2.78,0,0,1,.38-2.91,11.1,11.1,0,0,0,2.5-7h0a1.39,1.39,0,0,1,.88-1.29l2.15-.87C532.29,159.58,532.8,157.9,532.17,156.34Z"/><circle class="cls-4" cx="520.85" cy="164.16" r="2.53"/><ellipse class="cls-4" cx="511.77" cy="163.68" rx="1.8" ry="2.4" transform="translate(-22.21 223.4) rotate(-24.12)"/><ellipse class="cls-4" cx="516.84" cy="148.02" rx="1.52" ry="0.82"/><ellipse class="cls-4" cx="529.9" cy="157.25" rx="1.34" ry="1.52" transform="translate(-20.42 208.9) rotate(-21.89)"/><ellipse class="cls-4" cx="522.72" cy="174.25" rx="1.52" ry="1.08" transform="translate(-24.91 235.08) rotate(-24.77)"/><ellipse class="cls-4" cx="503.67" cy="168.62" rx="1.27" ry="1.52" transform="translate(-26.56 199.84) rotate(-21.88)"/><ellipse class="cls-4" cx="504.79" cy="154.06" rx="1" ry="0.29" transform="translate(80.21 467.56) rotate(-53.41)"/><ellipse class="cls-4" cx="516.85" cy="158.42" rx="1.68" ry="1.51" transform="translate(-4.34 14.9) rotate(-1.65)"/><path class="cls-4" d="M507,160.11l-.1,0a.29.29,0,0,1-.18-.37,1.53,1.53,0,0,0-.52-1.73l-1.38-1.05a.29.29,0,0,1-.06-.41.3.3,0,0,1,.41-.06l1.38,1.05a2.1,2.1,0,0,1,.72,2.39A.29.29,0,0,1,507,160.11Z"/><path class="cls-4" d="M509.83,155.16a2,2,0,0,1-1.23-.42.3.3,0,0,1,0-.41.29.29,0,0,1,.41-.05,1.39,1.39,0,0,0,1.45.16l.62-.3a.29.29,0,0,1,.39.14.29.29,0,0,1-.14.39l-.61.3A2,2,0,0,1,509.83,155.16Z"/><path class="cls-4" d="M519.06,173.89a.3.3,0,0,1-.28-.19l-.44-1.12a3,3,0,0,0-2.45-1.74l-1.06-.09a.29.29,0,0,1-.26-.32.3.3,0,0,1,.31-.27l1.06.09a3.55,3.55,0,0,1,2.94,2.1l.45,1.13a.3.3,0,0,1-.16.39Z"/><path class="cls-4" d="M525.5,164h-.07a.29.29,0,0,1-.22-.35l.08-.29a3.3,3.3,0,0,1,2.19-2.36l1.34-.3a.29.29,0,0,1,.35.22.28.28,0,0,1-.22.35l-1.31.3a2.71,2.71,0,0,0-1.78,1.93l-.07.29A.31.31,0,0,1,525.5,164Z"/><path class="cls-3" d="M497.62,140.66a4.17,4.17,0,0,1-3.08-3.73,19.42,19.42,0,0,0-2-7.45l4.12-3.15-5.05-6.62L487.32,123h0a19.64,19.64,0,0,0-6.68-3.56,4.27,4.27,0,0,1-3.08-4.06v-2.88h-6.1v3.14a4.22,4.22,0,0,1-2.86,4,19.6,19.6,0,0,0-7.5,4.65l-3.31-2.51-3.85,5.07,3.41,2.58a19.73,19.73,0,0,0-2,7.16c0,.36-.05.71-.06,1.06a4.26,4.26,0,0,1-2.95,3.94l-3.8,1.19,1.84,5.82,3.45-1.09a4.25,4.25,0,0,1,4.8,1.72c.35.51.71,1,1.1,1.47a2.74,2.74,0,0,1,0,3.45l5.06,4.07.47-.59a2.68,2.68,0,0,1,3-.87,19.48,19.48,0,0,0,5,1.09h0a4.34,4.34,0,0,1,3.87,3.34l.53,2.33,5.93-1.39-.55-2.42a4.23,4.23,0,0,1,1.95-4.59,19.77,19.77,0,0,0,6.66-6.58,4.22,4.22,0,0,1,4.73-1.85l3.33,1,1.64-5.87Z"/><ellipse class="cls-3" cx="474.51" cy="112.47" rx="3.05" ry="1.27"/><ellipse class="cls-3" cx="494.12" cy="123.02" rx="3.02" ry="4.16" transform="translate(26.69 325) rotate(-37.35)"/><ellipse class="cls-3" cx="500.56" cy="144.73" rx="3.05" ry="1.27" transform="translate(226.72 588.03) rotate(-74.42)"/><ellipse class="cls-3" cx="480.66" cy="162.79" rx="3.05" ry="1.27" transform="translate(-24.45 113.82) rotate(-13.17)"/><ellipse class="cls-3" cx="462.28" cy="156.15" rx="2.48" ry="3.24" transform="translate(51 418.7) rotate(-51.22)"/><ellipse class="cls-3" cx="449.44" cy="145.66" rx="1.27" ry="3.05" transform="translate(-23 141.68) rotate(-17.47)"/><ellipse class="cls-3" cx="455.87" cy="124.29" rx="3.18" ry="2.85" transform="translate(81.52 412.6) rotate(-52.85)"/><circle class="cls-4" cx="483.62" cy="143.79" r="3.89"/><ellipse class="cls-4" cx="478.5" cy="130.81" rx="1.62" ry="2.39" transform="translate(112.16 465.28) rotate(-57.69)"/><ellipse class="cls-4" cx="468.02" cy="134.79" rx="1.47" ry="1.28" transform="translate(117.28 472.71) rotate(-60)"/><ellipse class="cls-4" cx="474.51" cy="112.47" rx="1.52" ry="0.44"/><ellipse class="cls-4" cx="494.12" cy="123.02" rx="1.5" ry="2.07" transform="translate(26.69 325) rotate(-37.35)"/><ellipse class="cls-4" cx="500.56" cy="144.73" rx="1.52" ry="0.44" transform="translate(226.72 588.03) rotate(-74.42)"/><ellipse class="cls-4" cx="480.66" cy="162.79" rx="1.52" ry="0.44" transform="translate(-24.45 113.82) rotate(-13.17)"/><ellipse class="cls-4" cx="462.28" cy="156.15" rx="1.12" ry="1.61" transform="translate(51 418.7) rotate(-51.22)"/><ellipse class="cls-4" cx="467.48" cy="147.12" rx="2.84" ry="3.12" transform="translate(59.98 419.38) rotate(-51.22)"/><ellipse class="cls-4" cx="449.44" cy="145.66" rx="0.44" ry="1.52" transform="translate(-23 141.68) rotate(-17.47)"/><ellipse class="cls-4" cx="455.87" cy="124.29" rx="1.58" ry="1.52" transform="translate(81.52 412.6) rotate(-52.85)"/><path class="cls-4" d="M458.64,133.07l-.19,0a.59.59,0,0,1-.37-.74,1.92,1.92,0,0,0-.79-2.24l-.25-.16-2-1.49a.58.58,0,0,1-.11-.82.59.59,0,0,1,.82-.12l2.14,1.59a3.12,3.12,0,0,1,1.28,3.61A.58.58,0,0,1,458.64,133.07Z"/><path class="cls-4" d="M463.36,126a2.81,2.81,0,0,1-1.69-.56l-.92-.67a.59.59,0,0,1,.7-.95l.92.67a1.65,1.65,0,0,0,2.17-.16.6.6,0,0,1,.84,0,.59.59,0,0,1,0,.83A2.85,2.85,0,0,1,463.36,126Z"/><path class="cls-4" d="M491.36,134a.58.58,0,0,1-.56-.42,4.23,4.23,0,0,1,1.49-4.63l1.47-1.11a.59.59,0,0,1,.83.11.6.6,0,0,1-.12.83L493,129.84a3.08,3.08,0,0,0-1.08,3.35.57.57,0,0,1-.38.73A.57.57,0,0,1,491.36,134Z"/><path class="cls-4" d="M484.72,124.45a4.92,4.92,0,0,1-2.05-.45.59.59,0,0,1,.5-1.07,3.62,3.62,0,0,0,3.72-.38l.08,0a.59.59,0,0,1,.82.12.6.6,0,0,1-.12.83l-.07,0A4.83,4.83,0,0,1,484.72,124.45Z"/><path class="cls-4" d="M476.76,160.07a.6.6,0,0,1-.57-.44l-.49-1.87a2.21,2.21,0,0,0-2.13-1.63.58.58,0,0,1-.58-.59.59.59,0,0,1,.58-.59,3.39,3.39,0,0,1,3.27,2.51l.49,1.87a.59.59,0,0,1-.42.72Z"/><path class="cls-5" d="M609.91,448.13l1.41,14.38a7,7,0,0,0,7.57,6.28l6-.53a45.15,45.15,0,0,1,10.13.25l4.64.65a26.39,26.39,0,0,0,8.73-.24c6.66-1.31,15.61-2.64,25.93-7.63,4.56-2,2.24-7.89-2.42-6.14l4.66-1.75c4.95-1.73,3.74-8.63-1.3-6.94l1.08-.4c5.66-2.52,3.91-9-1.2-7.42l-2.74,1.05c2.86-1.94,2.58-7.53-2.62-6,0,0-12.81,3-27.46,4.76l5.9-4.72a8,8,0,0,0,3-7h0a1.54,1.54,0,0,0-2.08-1.29l-13,4.94-2.37.93A22.17,22.17,0,0,0,627,435.4h0a20.58,20.58,0,0,1-10.78,5.07l-.4.06A7,7,0,0,0,609.91,448.13Z"/><path class="cls-3" d="M651.27,445.53a.7.7,0,0,1-.12-1.39A147,147,0,0,0,672.2,439a.71.71,0,0,1,.89.43.7.7,0,0,1-.43.9,148.46,148.46,0,0,1-21.27,5.17Z"/><path class="cls-3" d="M656.26,452.18a.7.7,0,0,1-.17-1.38c13.51-3.48,18.95-5,19-5a.71.71,0,0,1,.87.49.7.7,0,0,1-.49.87c-.05,0-5.5,1.54-19,5A.55.55,0,0,1,656.26,452.18Z"/><path class="cls-3" d="M653.47,460.31a.68.68,0,0,1-.69-.61.71.71,0,0,1,.6-.79,109.44,109.44,0,0,0,18.32-4.42.69.69,0,0,1,.89.43.71.71,0,0,1-.43.9,112.22,112.22,0,0,1-18.6,4.49Z"/><circle class="cls-2" cx="609.25" cy="478.08" r="2.01"/><path class="cls-2" d="M676.19,481.69a2,2,0,1,0,2,2A2,2,0,0,0,676.19,481.69Z"/><circle class="cls-2" cx="627.94" cy="431.3" r="4.37"/><circle class="cls-2" cx="686.21" cy="461.35" r="3.34"/><path class="cls-2" d="M676.27,459.61a8.6,8.6,0,0,0-8.16-8.59,12.66,12.66,0,0,0,.12-1.64,11.94,11.94,0,0,0-14.6-11.67,8.61,8.61,0,0,0-14.48.19,9.92,9.92,0,0,0-11.5,14.68,9.92,9.92,0,0,0-4.31,13A8.61,8.61,0,1,0,629,481a12,12,0,0,0,22.25-6.1c0-.26,0-.52,0-.78a12.11,12.11,0,0,0,3.44-1,11.91,11.91,0,0,0,13.9-4.88A8.62,8.62,0,0,0,676.27,459.61Z"/><path class="cls-6" d="M664.5,451.68l-.17,0a.7.7,0,0,1-.51-.85A8.12,8.12,0,0,0,664,449a7.78,7.78,0,0,0-7.78-7.77.71.71,0,0,1,0-1.41,9.19,9.19,0,0,1,9.18,9.18,9.33,9.33,0,0,1-.26,2.17A.7.7,0,0,1,664.5,451.68Z"/><path class="cls-6" d="M639.31,484.55a.7.7,0,0,1-.7-.7.7.7,0,0,1,.7-.71,7.73,7.73,0,0,0,4.7-1.57.7.7,0,1,1,.85,1.11A9.06,9.06,0,0,1,639.31,484.55Z"/><path class="cls-6" d="M629.84,444.93a.6.6,0,0,1-.31-.08.69.69,0,0,1-.31-.94,8.4,8.4,0,0,1,13.22-2.4.7.7,0,1,1-1,1,7,7,0,0,0-11,2A.69.69,0,0,1,629.84,444.93Z"/><path class="cls-5" d="M603.22,464.58l2.17-11.79a7,7,0,0,1,7.63-5.68l3.36.36a41.33,41.33,0,0,0,13.58-.79l.35-.08a34.53,34.53,0,0,1,11.86-.61l3.12.38a36.4,36.4,0,0,1,9,2.26l4.86,1.89a1.94,1.94,0,0,1,.81,3h0a6.31,6.31,0,0,1-5.33,2.35,85,85,0,0,0-11.59-.12s16.17,6.94,28.23,10c3.19.92,1.6,5.82-2.59,5.38h0c3.14,1,2.3,6.14-2.86,5.54l-1-.17c4,.7,1.7,6.27-2.79,5.67l-4.68-.52c3,.79,1.58,5.18-2.74,4.6,0,0-6.49,0-18.42-3.08a30.89,30.89,0,0,1-8.93-3.94h0a41.72,41.72,0,0,0-15.18-6l-3.18-.58A7,7,0,0,1,603.22,464.58Z"/><path class="cls-3" d="M668.63,471.87h-.14c-10.86-2.21-16-3.56-18.31-4.29a.71.71,0,0,1-.46-.88.7.7,0,0,1,.88-.46c2.33.72,7.37,2,18.17,4.25a.7.7,0,0,1-.14,1.39Z"/><path class="cls-3" d="M664.78,477.24h0a91.21,91.21,0,0,1-18.93-3.42.71.71,0,0,1-.47-.88.71.71,0,0,1,.88-.47,89.23,89.23,0,0,0,18.59,3.37.7.7,0,0,1,0,1.4Z"/><path class="cls-3" d="M657.3,482.39h-.09A80.8,80.8,0,0,1,645.48,480a.69.69,0,0,1-.48-.86.71.71,0,0,1,.87-.49A77.86,77.86,0,0,0,657.39,481a.7.7,0,0,1,.61.79A.71.71,0,0,1,657.3,482.39Z"/><path class="cls-3" d="M621.46,448.42a68.91,68.91,0,0,1-8.54-.62.7.7,0,0,1,.19-1.39c.08,0,7.89,1.07,12.23.34a.7.7,0,0,1,.81.57.69.69,0,0,1-.58.81A24.92,24.92,0,0,1,621.46,448.42Z"/><path class="cls-2" d="M622.3,127.36a70.22,70.22,0,0,1-.17,26.32,4.47,4.47,0,0,0,1.26,4.12c10.85,10.57,24.06,16.31,39,18a13.11,13.11,0,0,0,9.13-2.4,49.39,49.39,0,0,0,11.34-11.14s6.61-20,0-40.18c0,0-6.93-6-14.73-8.85a12.8,12.8,0,0,0-4.6-.71c-5.46.13-19.66,1.39-38.72,10.07A4.41,4.41,0,0,0,622.3,127.36Z"/><path class="cls-6" d="M625.35,155.8a1,1,0,0,1-.24,0l-11.43-3.67a9.78,9.78,0,0,1-6.82-9.34V128.82a7.35,7.35,0,0,1,9.86-6.9l10,3.65a.79.79,0,1,1-.54,1.48l-10-3.64a5.76,5.76,0,0,0-7.74,5.41v13.93a8.19,8.19,0,0,0,5.72,7.83l11.43,3.67a.79.79,0,0,1-.24,1.55Z"/><path class="cls-6" d="M680.22,134.05h-.11L669,132.53l-35.69.94a.78.78,0,0,1-.81-.77.79.79,0,0,1,.77-.81L669,131h.12l11.19,1.52a.78.78,0,0,1,.68.89A.79.79,0,0,1,680.22,134.05Z"/><path class="cls-6" d="M669.63,151.2h0a78.19,78.19,0,0,1-8.62-.71.79.79,0,1,1,.2-1.57,76.76,76.76,0,0,0,8.4.7A38.28,38.28,0,0,0,680,147.45a.79.79,0,0,1,1,.49.78.78,0,0,1-.48,1,40.5,40.5,0,0,1-10.77,2.26Z"/><path class="cls-6" d="M668.58,166.61h0C654.83,166,640,160,631.52,155a.79.79,0,0,1,.8-1.37c8.32,4.87,22.77,10.76,36.16,11.37a32.87,32.87,0,0,0,9.6-4.75.79.79,0,1,1,.95,1.27,34.76,34.76,0,0,1-10.21,5Z"/><path class="cls-6" d="M632.53,125.61a.79.79,0,0,1-.75-.57.78.78,0,0,1,.53-1c.93-.28,23-6.82,35.05-6.45a.69.69,0,0,1,.2,0c.37.1,9.28,2.67,12.57,5.44a.79.79,0,0,1,.1,1.11.8.8,0,0,1-1.12.1c-2.86-2.41-10.93-4.82-11.89-5.11-11.8-.32-34.24,6.33-34.46,6.39A.62.62,0,0,1,632.53,125.61Z"/><path class="cls-6" d="M648,156c-4.45,0-8.07-4-8.07-8.91s3.62-8.92,8.07-8.92,8.07,4,8.07,8.92S652.45,156,648,156Zm0-16.25c-3.58,0-6.49,3.29-6.49,7.34s2.91,7.33,6.49,7.33,6.49-3.29,6.49-7.33S651.58,139.7,648,139.7Z"/><path class="cls-6" d="M652.2,146.13a.79.79,0,0,1-.75-.55,4.15,4.15,0,0,0-1.32-2,.79.79,0,0,1,1-1.23,5.78,5.78,0,0,1,1.82,2.7.79.79,0,0,1-.5,1A.77.77,0,0,1,652.2,146.13Z"/><path class="cls-6" d="M650.22,152.15a.76.76,0,0,1-.66-.36.78.78,0,0,1,.24-1.09,4.14,4.14,0,0,0,1.69-2.35.79.79,0,1,1,1.52.43,5.7,5.7,0,0,1-2.36,3.25A.82.82,0,0,1,650.22,152.15Z"/><path class="cls-5" d="M520.87,292.45a14.36,14.36,0,0,0-14.14-11.93l-.45,0A12.57,12.57,0,0,0,484.33,276a17.42,17.42,0,0,0-22,27,17.41,17.41,0,0,0,27.44,19.6,14.34,14.34,0,0,0,20.9-3.35,14.21,14.21,0,0,0,5.9,1.28,14.36,14.36,0,0,0,4.26-28.08Z"/><circle class="cls-3" cx="479.66" cy="291.11" r="4.34"/><circle class="cls-3" cx="504.43" cy="305.29" r="4.34"/><circle class="cls-3" cx="451.78" cy="303.34" r="2.39"/><circle class="cls-3" cx="489.76" cy="330.21" r="2.39"/><circle class="cls-3" cx="511.36" cy="275.46" r="2.59"/><circle class="cls-3" cx="479.66" cy="309.63" r="3.23"/><circle class="cls-3" cx="495.95" cy="278.06" r="1.57"/><path class="cls-3" d="M459.73,290.57a.79.79,0,0,1-.79-.79,14.62,14.62,0,0,1,14.6-14.6A14.35,14.35,0,0,1,480,276.7a.78.78,0,0,1,.36,1.05.8.8,0,0,1-1.06.36,13,13,0,0,0-18.79,11.67A.79.79,0,0,1,459.73,290.57Z"/><path class="cls-3" d="M516.35,317.14a.79.79,0,0,1,0-1.58,9.91,9.91,0,0,0,1.81-.17.79.79,0,1,1,.29,1.55A11.4,11.4,0,0,1,516.35,317.14Z"/><path class="cls-3" d="M522.36,315.27a.79.79,0,0,1-.45-1.44,9.86,9.86,0,0,0,3.74-4.93.79.79,0,0,1,1.49.51,11.42,11.42,0,0,1-4.34,5.72A.72.72,0,0,1,522.36,315.27Z"/><text class="cls-7" transform="translate(79.83 103.56)">C<tspan class="cls-8" x="19.97" y="0">o</tspan><tspan x="37.6" y="0">vid19</tspan><tspan class="cls-9"><tspan x="0" y="34">Illus</tspan><tspan class="cls-10" x="53.75" y="34">t</tspan><tspan class="cls-11" x="63.87" y="34">r</tspan><tspan x="74.06" y="34">a</tspan><tspan class="cls-10" x="89.83" y="34">t</tspan><tspan x="99.94" y="34">ion</tspan></tspan></text><rect class="cls-3" x="207.82" y="77.7" width="87.18" height="27.02" rx="13.51"/><text class="cls-12" transform="translate(229.06 97.76)">F<tspan class="cls-13" x="11.29" y="0">r</tspan><tspan x="19.14" y="0">ee</tspan></text><path class="cls-5" d="M242.35,322.89l-7.25-19.82-3.32-4.21a14.43,14.43,0,0,1-3-10.32h0a3.08,3.08,0,0,1,3.57-2.75l1.52.25-.4-3.54a7.81,7.81,0,0,1,1.95-6.06h0a7.82,7.82,0,0,1,6-2.58l15,.38a6.47,6.47,0,0,1,6,4.46l9.17,28.17a2,2,0,0,1-.9,2.38L245.27,324A2,2,0,0,1,242.35,322.89Z"/><path class="cls-3" d="M241.05,296.23l-.49,0L237,295.8a.79.79,0,0,1-.69-.87.78.78,0,0,1,.86-.69l3.55.41a2.83,2.83,0,0,0,2.26-.77,2.79,2.79,0,0,0-1.16-4.68l-8.21-2.41a.79.79,0,0,1-.54-1,.8.8,0,0,1,1-.54l8.21,2.41a4.39,4.39,0,0,1,3.13,3.85,4.37,4.37,0,0,1-4.35,4.69Z"/><path class="cls-3" d="M258,296.36a3.78,3.78,0,0,1-3.77-3.56l-.6-10a.8.8,0,0,1,.74-.83.78.78,0,0,1,.83.74l.59,10a2.19,2.19,0,0,0,.75,1.53,2.21,2.21,0,0,0,3.13-.2,2.17,2.17,0,0,0,.54-1.6l-.4-6.07a.78.78,0,0,1,1.56-.1l.41,6.06a3.78,3.78,0,0,1-3.54,4Z"/><path class="cls-3" d="M251.72,297.2a4.1,4.1,0,0,1-4.09-3.69l-1.18-11.57a.78.78,0,0,1,1.56-.16l1.18,11.57a2.53,2.53,0,0,0,2.53,2.28,2.55,2.55,0,0,0,2.54-2.69l-.41-6.86a.78.78,0,1,1,1.56-.09l.41,6.86a4,4,0,0,1-1.11,3.06A4.08,4.08,0,0,1,251.72,297.2Z"/><path class="cls-3" d="M240.69,288.83a.79.79,0,0,1-.78-.68l-.92-6.81a.78.78,0,1,1,1.55-.21l.93,6.81a.78.78,0,0,1-.67.88Z"/><path class="cls-3" d="M245,298a4.23,4.23,0,0,1-3.58-2,.79.79,0,1,1,1.32-.85,2.67,2.67,0,0,0,4.92-1.71l-1.17-11.51a.78.78,0,0,1,1.56-.16l1.17,11.51A4.24,4.24,0,0,1,245,298Z"/><path class="cls-3" d="M218.79,295.84s3.89,17.2,12.29,25.1l40.58-20.21s31.4,66.09,35.12,109.25a19.29,19.29,0,0,1-5.31,14.93c-10.46,11-34,27.7-59.28-8.71l-32.95-91.63Z"/><path class="cls-3" d="M185.9,208.18S212,224,217,280c7.39,82.87,40.64,86.24,41.72,232A9.87,9.87,0,0,1,248.8,522H90a9.89,9.89,0,0,1-9.82-8.84c-12.87-119.92,19.36-166,27.91-257.47C112.92,203.74,162.21,196.38,185.9,208.18Z"/><polygon class="cls-5" points="163.22 521.97 123.5 521.97 117.39 514.38 143.74 497.31 163.22 521.97"/><path class="cls-3" d="M99.41,312.18s-43,91.89-34.31,136.44c8.68,44.19,35.35,73.35,48.12,87.17l36.67-31.12C126.8,469.18,81.44,417.39,99.41,312.18Z"/><path class="cls-5" d="M179.25,212.11s-22.35,12.53-30.53,43.55c0,0-2.73,41.35,29.31,42.94s28.9-31.78,26.59-43.17C200.19,233.62,187.56,218,179.25,212.11Z"/><path class="cls-4" d="M193.06,227.29c-4.66-7.11-9.75-12.32-13.81-15.18,0,0-8.93,5-17.58,16.55C169,226.76,183.75,225.9,193.06,227.29Z"/><path class="cls-4" d="M148.72,256.46h0a.8.8,0,0,1-.77-.83c.4-12,1.15-20.92,2.27-27.21a.8.8,0,0,1,.93-.65.79.79,0,0,1,.65.93c-1.11,6.22-1.85,15.05-2.25,27A.8.8,0,0,1,148.72,256.46Z"/><path class="cls-4" d="M221.5,480.73a.8.8,0,0,1-.77-.59c-12.6-45.2-39.36-81.8-63-114.1-28-38.23-52.11-71.26-50.5-110.42a.81.81,0,0,1,.84-.77.8.8,0,0,1,.76.84c-1.58,38.6,22.41,71.41,50.19,109.41,23.7,32.4,50.55,69.13,63.22,114.61a.8.8,0,0,1-.56,1A.76.76,0,0,1,221.5,480.73Z"/><path class="cls-4" d="M206,388.07a.71.71,0,0,1-.29-.05.8.8,0,0,1-.46-1c11.51-30.36,10.93-106.22,10.92-107a.82.82,0,0,1,.8-.81h0a.8.8,0,0,1,.8.8c0,.76.58,76.91-11,107.56A.78.78,0,0,1,206,388.07Z"/><path class="cls-4" d="M135.67,476.39a.79.79,0,0,1-.79-.7c-4.17-33.07-11.75-58.14-18.45-80.25-10.39-34.36-19.37-64-12.77-111.08a.8.8,0,0,1,.9-.69.82.82,0,0,1,.69.91C98.7,331.28,107.63,360.8,118,395c6.71,22.18,14.32,47.32,18.5,80.52a.8.8,0,0,1-.7.89Z"/><path class="cls-4" d="M159.32,345.9a.81.81,0,0,1-.72-1.16c4.2-8.48,12.73-14.62,21.76-21.12,12.49-9,25.42-18.3,26.25-34.37a.81.81,0,0,1,1.61.08c-.88,16.84-14.12,26.37-26.93,35.6-8.86,6.38-17.23,12.4-21.25,20.52A.82.82,0,0,1,159.32,345.9Z"/><path class="cls-4" d="M120.55,516.91a.81.81,0,0,1-.61-.28.8.8,0,0,1,.08-1.13l23.5-20.17a.8.8,0,0,1,1,1.21l-23.5,20.18A.8.8,0,0,1,120.55,516.91Z"/><path class="cls-4" d="M258.22,405.81a.8.8,0,0,1-.72-.45L220,325.94a.79.79,0,0,1,0-.62.77.77,0,0,1,.42-.45l10.32-4.66a.81.81,0,0,1,1.06.4.79.79,0,0,1-.4,1.06L221.83,326,259,404.67a.81.81,0,0,1-.39,1.07A.8.8,0,0,1,258.22,405.81Z"/><path class="cls-4" d="M247.16,325a.81.81,0,0,1-.72-.45.79.79,0,0,1,.36-1.07l28.66-14.33a.8.8,0,0,1,1.08.36.81.81,0,0,1-.36,1.08l-28.67,14.32A.73.73,0,0,1,247.16,325Z"/><path class="cls-4" d="M101.06,522.77a.78.78,0,0,1-.62-.29A185.39,185.39,0,0,1,79,490.39a.8.8,0,0,1,.34-1.08.79.79,0,0,1,1.08.34,183.73,183.73,0,0,0,21.23,31.81.8.8,0,0,1-.12,1.13A.77.77,0,0,1,101.06,522.77Z"/><path class="cls-4" d="M120.55,459.55a.8.8,0,0,1-.71-.42,204.13,204.13,0,0,1-21.76-60.65c-4.92-26.45-4.74-55.53.54-86.43a.8.8,0,0,1,.92-.66.81.81,0,0,1,.66.93c-12.48,73,6,118.33,21,146.05a.79.79,0,0,1-.32,1.08A.75.75,0,0,1,120.55,459.55Z"/><path class="cls-4" d="M133.94,519a.8.8,0,0,1-.52-1.41l15.41-13.09c-2.21-3.38-4.62-6.91-7.16-10.63s-5.24-7.69-8-11.84a.8.8,0,0,1,.23-1.11.79.79,0,0,1,1.11.22c2.73,4.15,5.39,8.05,8,11.82,2.69,3.95,5.24,7.68,7.57,11.26a.8.8,0,0,1-.16,1l-15.95,13.54A.82.82,0,0,1,133.94,519Z"/><path class="cls-3" d="M181.93,266.27a10.65,10.65,0,0,1-2.55-.32.8.8,0,0,1,.39-1.55c1.07.27,3.06.48,3.88-.1a.81.81,0,0,0,.36-.67c.42-4.73-4.24-9.63-4.29-9.68a.8.8,0,0,1,1.16-1.11c.21.22,5.21,5.48,4.73,10.93a2.44,2.44,0,0,1-1,1.84A4.66,4.66,0,0,1,181.93,266.27Z"/><path class="cls-3" d="M184.84,282.79a.8.8,0,0,1-.67-.36c-4.65-7.16-13.33-7.76-13.42-7.77a.8.8,0,1,1,.1-1.6c.39,0,9.57.64,14.66,8.49a.79.79,0,0,1-.23,1.11A.8.8,0,0,1,184.84,282.79Z"/><path class="cls-3" d="M218.85,262.31l5.81-3.93a.93.93,0,0,1,1.44.58l.33,1.66,5.8-2.41a1.2,1.2,0,0,1,1.62,1.42l-.77,2.86a1.18,1.18,0,0,1-.82.84l-6.72,1.94a.93.93,0,0,1-1.17-.7l-.58-2.73-4.49,1.41A.53.53,0,0,1,218.85,262.31Z"/><path class="cls-3" d="M218.93,270.37l7,2a.93.93,0,0,1,.37,1.58l-.83.76,5,2.24a1.2,1.2,0,0,1,.35,1.94l-1.81,1.79a1.21,1.21,0,0,1-1.49.15l-7.19-4.69a.93.93,0,0,1-.13-1.46l1.42-1.32-3.06-2.09A.53.53,0,0,1,218.93,270.37Z"/><path class="cls-2" d="M154.3,259.25a58.69,58.69,0,0,1-.14,22,3.74,3.74,0,0,0,1.05,3.45c9.07,8.84,20.13,13.64,32.62,15a10.89,10.89,0,0,0,7.64-2,41.25,41.25,0,0,0,9.49-9.31s5.53-16.73,0-33.61a45.88,45.88,0,0,0-12.32-7.41,10.7,10.7,0,0,0-3.85-.59c-4.57.1-16.45,1.16-32.39,8.42A3.69,3.69,0,0,0,154.3,259.25Z"/><path class="cls-2" d="M156.85,283.18a.52.52,0,0,1-.17,0l-48.94-11a.8.8,0,0,1-.6-1,.81.81,0,0,1,1-.61l48.93,11a.8.8,0,0,1,.6,1A.79.79,0,0,1,156.85,283.18Z"/><path class="cls-2" d="M157.77,259.18a.76.76,0,0,1-.47-.16l-38.84-28.65a.8.8,0,0,1-.17-1.12.81.81,0,0,1,1.12-.17l38.84,28.65a.8.8,0,0,1-.48,1.45Z"/><path class="cls-6" d="M202.75,265h-.11l-9.3-1.27-29.84.79h0a.8.8,0,0,1,0-1.6l29.91-.79h.13l9.36,1.27a.8.8,0,0,1-.11,1.59Z"/><path class="cls-6" d="M193.89,279.34h0a68.8,68.8,0,0,1-7.23-.59.8.8,0,0,1-.69-.9.78.78,0,0,1,.89-.69,67.22,67.22,0,0,0,7,.58,32.23,32.23,0,0,0,8.62-1.81.8.8,0,1,1,.53,1.51,33.91,33.91,0,0,1-9,1.9Z"/><path class="cls-6" d="M193,292.23h0c-11.5-.49-23.91-5.53-31-9.71a.8.8,0,1,1,.81-1.38c6.95,4.06,19,9,30.16,9.48a27.22,27.22,0,0,0,8-3.94.8.8,0,0,1,1,1.29,29,29,0,0,1-8.59,4.23A.88.88,0,0,1,193,292.23Z"/><path class="cls-6" d="M162.86,257.93a.79.79,0,0,1-.77-.57.8.8,0,0,1,.54-1c.78-.23,19.28-5.71,29.37-5.4a.69.69,0,0,1,.2,0c.31.09,7.79,2.24,10.56,4.57a.8.8,0,0,1-1,1.23c-2.35-2-9-4-9.88-4.23h-.69c-10,0-27.89,5.29-28.07,5.35A.91.91,0,0,1,162.86,257.93Z"/><path class="cls-6" d="M175.8,283.32c-3.8,0-6.89-3.41-6.89-7.6s3.09-7.6,6.89-7.6,6.89,3.41,6.89,7.6S179.6,283.32,175.8,283.32Zm0-13.6c-2.92,0-5.29,2.69-5.29,6s2.37,6,5.29,6,5.28-2.69,5.28-6S178.71,269.72,175.8,269.72Z"/><path class="cls-6" d="M179.31,275.1a.8.8,0,0,1-.76-.56,3.41,3.41,0,0,0-1.06-1.58.8.8,0,1,1,1-1.24,4.92,4.92,0,0,1,1.57,2.33.8.8,0,0,1-.51,1A1.09,1.09,0,0,1,179.31,275.1Z"/><path class="cls-6" d="M177.66,280.14a.8.8,0,0,1-.44-1.48,3.31,3.31,0,0,0,1.37-1.89.8.8,0,0,1,1-.55.82.82,0,0,1,.55,1,4.89,4.89,0,0,1-2,2.79A.75.75,0,0,1,177.66,280.14Z"/></svg>