<svg xmlns="http://www.w3.org/2000/svg" width="654.81" height="628.4" viewBox="0 0 654.81 628.4"><g id="Layer_2" data-name="Layer 2"><g id="Layer_1-2" data-name="Layer 1"><path d="M285.44,280.19c0-6.8,10.7-12.3,23.89-12.3s23.89,5.5,23.89,12.3-10.7,12.29-23.89,12.29S285.44,287,285.44,280.19Z" fill="#8dc5e0" fill-rule="evenodd"/><path d="M248.11,566l7.25,23.34,30.08-6.87-2.95-29.68Z" fill="#ff3274" fill-rule="evenodd"/><path d="M168.27,282.94H625.75a4.42,4.42,0,0,1,4.42,4.42v8a4.42,4.42,0,0,1-4.42,4.42H168.27a4.42,4.42,0,0,1-4.42-4.42v-8A4.42,4.42,0,0,1,168.27,282.94Z" fill="#aadaf1" fill-rule="evenodd"/><path d="M230.55,300.18,138,584" fill="none" stroke="#aadaf1" stroke-linecap="round" stroke-linejoin="round" stroke-width="2"/><path d="M305.66,300.18,213.15,584" fill="none" stroke="#aadaf1" stroke-linecap="round" stroke-linejoin="round" stroke-width="2"/><path d="M305.66,300.18,398.16,584" fill="none" stroke="#aadaf1" stroke-linecap="round" stroke-linejoin="round" stroke-width="2"/><path d="M230.55,300.18,323.05,584" fill="none" stroke="#aadaf1" stroke-linecap="round" stroke-linejoin="round" stroke-width="2"/><path d="M147.78,537.54l-9.74,22L165,571.09l12-22.24Z" fill="#ff3274" fill-rule="evenodd"/><path d="M137.42,557.51l28.5,12.34s35.52,33.28,51.91,41.39c-.05,7.39-1,10.82-6.68,12.93-2.54.94-48.45-17.44-48.45-17.44l-7.7-8.26-29.7-13.66Z" fill="#6a3416" fill-rule="evenodd"/><path d="M154.63,551.71a3.63,3.63,0,1,1,3.63,3.63A3.62,3.62,0,0,1,154.63,551.71Z" fill="none" stroke="#fff" stroke-linecap="round" stroke-linejoin="round" stroke-width="2"/><path d="M140.9,556.44a3.64,3.64,0,1,1,3.63,3.64A3.64,3.64,0,0,1,140.9,556.44Z" fill="none" stroke="#fff" stroke-linecap="round" stroke-linejoin="round" stroke-width="2"/><path d="M159.72,562.83a3.63,3.63,0,1,1,3.63,3.63A3.63,3.63,0,0,1,159.72,562.83Z" fill="none" stroke="#fff" stroke-linecap="round" stroke-linejoin="round" stroke-width="2"/><path d="M123.06,579.56l29.07,12.93a3.12,3.12,0,0,1,1.62,4.09l-2.54,5.71a3.1,3.1,0,0,1-4.12,1.52L118,590.88a3.1,3.1,0,0,1-1.62-4.08l2.53-5.71A3.12,3.12,0,0,1,123.06,579.56Z" fill="#3c1b09" fill-rule="evenodd"/><path d="M73.89,327c66.21-18.65,161.19-8.32,181.68,20.13,7.32,10.16,4.84,26.06,3,32.05s-79.32,172.22-79.32,172.22l-34.74-13.21,34.14-135S65.66,329.3,73.89,327Z" fill="#c4c4c4" fill-rule="evenodd"/><path d="M156.81,542.86,196.8,414" fill="none" stroke="#8d8d8d" stroke-linecap="round" stroke-linejoin="round" stroke-width="2"/><path d="M148,524.33l37.28,14" fill="none" stroke="#8d8d8d" stroke-linecap="round" stroke-linejoin="round" stroke-width="2"/><path d="M254.76,587.19l29.86-8.52s48.57,3.23,66.39-.89c4.65,5.75,6.12,9,3,14.24-1.37,2.33-48.53,17.22-48.53,17.22l-11.19-1.51L262.7,616Z" fill="#6a3416" fill-rule="evenodd"/><path d="M257.63,613.36l30.68-8.43a3.1,3.1,0,0,1,3.84,2.12l1.66,6a3.1,3.1,0,0,1-2.22,3.79l-30.68,8.43a3.1,3.1,0,0,1-3.84-2.12l-1.66-6A3.1,3.1,0,0,1,257.63,613.36Z" fill="#3c1b09" fill-rule="evenodd"/><path d="M268.1,576.74a3.64,3.64,0,1,1,3.63,3.63A3.63,3.63,0,0,1,268.1,576.74Z" fill="none" stroke="#fff" stroke-linecap="round" stroke-linejoin="round" stroke-width="2"/><path d="M274.61,565a3.64,3.64,0,1,1,3.63,3.63A3.64,3.64,0,0,1,274.61,565Z" fill="none" stroke="#fff" stroke-linecap="round" stroke-linejoin="round" stroke-width="2"/><path d="M254.76,574.15a3.63,3.63,0,1,1,3.63,3.63A3.63,3.63,0,0,1,254.76,574.15Z" fill="none" stroke="#fff" stroke-linecap="round" stroke-linejoin="round" stroke-width="2"/><path d="M19.63,408.63h151.8a19.63,19.63,0,0,1,19.63,19.63h0a19.63,19.63,0,0,1-19.63,19.63H19.63A19.63,19.63,0,0,1,0,428.26H0A19.63,19.63,0,0,1,19.63,408.63Z" fill="#aadaf1" fill-rule="evenodd"/><path d="M89.17,434.48h12.72a3.8,3.8,0,0,1,3.8,3.8v140.6a3.8,3.8,0,0,1-3.8,3.8H89.17a3.8,3.8,0,0,1-3.8-3.8V438.28A3.8,3.8,0,0,1,89.17,434.48Z" fill="#aadaf1" fill-rule="evenodd"/><path d="M84.05,537.54h23a6.26,6.26,0,0,1,6.26,6.26v33.94A6.26,6.26,0,0,1,107,584h-23a6.26,6.26,0,0,1-6.26-6.26V543.8A6.26,6.26,0,0,1,84.05,537.54Z" fill="#aadaf1" fill-rule="evenodd"/><path d="M19.32,608.17v-6.63A17.54,17.54,0,0,1,36.86,584H95.53" fill="none" stroke="#aadaf1" stroke-linecap="round" stroke-linejoin="round" stroke-width="2"/><path d="M171.57,608.17v-6.63A17.55,17.55,0,0,0,154,584H95.35" fill="none" stroke="#aadaf1" stroke-linecap="round" stroke-linejoin="round" stroke-width="2"/><path d="M66.78,608.17v-8c0-8.93,4.65-16.17,10.38-16.17H113.9c5.73,0,10.38,7.24,10.38,16.17v8" fill="none" stroke="#aadaf1" stroke-linecap="round" stroke-linejoin="round" stroke-width="2"/><path d="M9.71,617.79a9.61,9.61,0,1,1,9.61,9.61A9.62,9.62,0,0,1,9.71,617.79Z" fill="none" stroke="#aadaf1" stroke-linecap="round" stroke-linejoin="round" stroke-width="2"/><path d="M57.17,617.79a9.61,9.61,0,1,1,9.61,9.61A9.62,9.62,0,0,1,57.17,617.79Z" fill="none" stroke="#aadaf1" stroke-linecap="round" stroke-linejoin="round" stroke-width="2"/><path d="M124.28,608.17a9.62,9.62,0,1,1-9.61,9.62,9.62,9.62,0,0,1,9.61-9.62" fill="none" stroke="#aadaf1" stroke-linecap="round" stroke-linejoin="round" stroke-width="2"/><path d="M162,617.79a9.61,9.61,0,1,1,9.61,9.61A9.62,9.62,0,0,1,162,617.79Z" fill="none" stroke="#aadaf1" stroke-linecap="round" stroke-linejoin="round" stroke-width="2"/><path d="M25.32,287.87C-35.25,414.39,87,417.8,129.9,417.17s54.19-3.86,65.8-6.67c3.71,11.24,48.18,156.8,48.18,156.8l39.05-11.8s-29.85-184.92-36.59-197.41c-18.51-34.34-128-36.2-141.85-35.37S33,271.83,25.32,287.87Z" fill="#c4c4c4" fill-rule="evenodd"/><path d="M29.1,305.16c-41.49,103.55,136.45,97.31,175.37,85.45,5.82,16.65,54,171.41,54,171.41" fill="none" stroke="#8d8d8d" stroke-linecap="round" stroke-linejoin="round" stroke-width="2"/><path d="M254.11,390.8a56.7,56.7,0,0,1-45.25-53.95" fill="none" stroke="#8d8d8d" stroke-linecap="round" stroke-linejoin="round" stroke-width="2"/><path d="M177.07,414.3a172.89,172.89,0,0,0,18.63-3.8c1.54,4.66,10.09,32.43,19.56,63.33" fill="none" stroke="#8d8d8d" stroke-linecap="round" stroke-linejoin="round" stroke-width="2"/><path d="M253.82,388.78c-3.26-16.27-6-27.87-7.48-30.69-17.4-32.26-115.16-35.86-138.35-35.48" fill="none" stroke="#8d8d8d" stroke-linecap="round" stroke-linejoin="round" stroke-width="2"/><path d="M281.06,544.06l-40.54,12.25" fill="none" stroke="#8d8d8d" stroke-linecap="round" stroke-linejoin="round" stroke-width="2"/><path d="M98.67,91.68a20.72,20.72,0,1,1,20.71,20.72A20.71,20.71,0,0,1,98.67,91.68Z" fill="#6a3416" fill-rule="evenodd"/><path d="M294.48,262.25c3.41-2.8,12.65-9.63,15.61-9.59s11.92,8.46,12.12,10.67-2.65,5.7-4.35,5.95-7.17-5-8.37-4.53-3.84,3.27-4.61,4.51S291.08,265,294.48,262.25Z" fill="#f77f89" fill-rule="evenodd"/><path d="M172.28,207.35l20.46,20.88S208.22,195,219,177.42c-2.18-3.14-6-15.65-5.51-18s11.75-24.53,14.47-23.24,5.26,5.62,3.87,10c1.61-5.77,4.33-13.75,6.73-14.54s7.45.25,7.23,4.3c1.15-2.65,3.18-4.51,5.5-4.61,2-.09,6.08,1.62,6.36,4.14.34,3.15-4.16,10.67-4.71,11.74,2.1-2.86,2.08-3,3.34-3,2.53.09,6.81,3.85,4.72,9.28s-12.42,30.77-20.42,31.85c.37,4.92-23.47,73.57-23.47,73.57l-36.12-1.44-26.31-34.8Z" fill="#f77f89" fill-rule="evenodd"/><path d="M101.12,131.92c-66.43.08-88.63,156-81.69,166.69,5.09,7.84,65.35,30.89,86,23.81,7.29-2.5,26.26-41.45,37-80.75,11.45-9.4,33.12-27.2,36.65-30.63-1-7.53-18.41-37.87-36.44-51.31C136.41,145.5,124.85,131.92,101.12,131.92Z" fill="#3b4161" fill-rule="evenodd"/><path d="M118.3,237.86s31.71,40,40.05,43.25,98.42,2.21,105,1.44,5.38,4.25,11.33,4.57c6.16.34,9.71-5.11,10.55-7.86,3.76,4.18,10.39,10.61,14.74,8.37,3.08-1.6,3.12-3,1-5.21,3,1.73,8.42,4.27,10.61,2.56,3.52-2.74,3.85-5.3,2.66-7.43-3.67-6.59-15.49-15.92-18.3-17-3.24-1.28-13.11,2.24-17.86,2.53-21.53,1.33-75.82-12.06-93.63-12.87-2.62-5-29.77-37.83-31.87-41.11C145.13,215.47,118.3,237.86,118.3,237.86Z" fill="#f77f89" fill-rule="evenodd"/><path d="M109.45,99.85A31.46,31.46,0,1,1,140.9,131.3,31.46,31.46,0,0,1,109.45,99.85Z" fill="#f77f89" fill-rule="evenodd"/><path d="M113.67,93c.13,4.89-10.11,35.81-14.15,41.73,2,4.73,21.57,16.59,30.56,14.06,1-6,4.35-18.06,6.42-20.74S113.54,88.07,113.67,93Z" fill="#f77f89" fill-rule="evenodd"/><path d="M149.62,33.54a20.61,20.61,0,0,0-15.69,7.32,23.33,23.33,0,0,0-8.09-1.5,23.45,23.45,0,0,0-22.72,30.43,13.75,13.75,0,0,0-4.44,10.1,14.05,14.05,0,0,0,11.5,13.72c.16-.77.16-1.31.41-2.19.68-2.34,10.86-6.62,12-5.85a7.94,7.94,0,0,0,3,1.32,2.4,2.4,0,0,0,.28,0,23.7,23.7,0,0,0,20.69-12.25,21,21,0,0,0,3.09.31,20.72,20.72,0,1,0,20.72-20.72A20.72,20.72,0,0,0,149.62,33.54Z" fill="#6a3416" fill-rule="evenodd"/><path d="M101.11,80.79A12.18,12.18,0,1,1,113.29,93,12.18,12.18,0,0,1,101.11,80.79Z" fill="#f77f89" fill-rule="evenodd"/><path d="M38.58,292.48c-1.31-19.34,17.17-91.19,31-112.57" fill="none" stroke="#737999" stroke-linecap="round" stroke-linejoin="round" stroke-width="2"/><path d="M79.53,196.92c3.22,6.65,19.15,36.1,32.65,46.49,5.15-4.88,42.27-36.51,42.27-36.51-4.74-8.81-27.53-36.43-34.92-43.2" fill="none" stroke="#737999" stroke-linecap="round" stroke-linejoin="round" stroke-width="2"/><path d="M105.19,236.69l44.62-36.87" fill="none" stroke="#737999" stroke-linecap="round" stroke-linejoin="round" stroke-width="2"/><path d="M137.55,150.57a9.65,9.65,0,0,1-1.38,2.76c-5.3,7.4-20.24,6.59-33.37-1.8" fill="none" stroke="#737999" stroke-linecap="round" stroke-linejoin="round" stroke-width="2"/><path d="M142.77,159.8c2.53,6.58,6,21.93,4.53,36.62" fill="none" stroke="#737999" stroke-linecap="round" stroke-linejoin="round" stroke-width="2"/><path d="M159.2,217.63,176,202.72" fill="none" stroke="#737999" stroke-linecap="round" stroke-linejoin="round" stroke-width="2"/><path d="M86,279c5.55-.87,35.85-.25,30.25,1.65s-16.08,3.25-11.41,4.35a115.32,115.32,0,0,0,13.61,2.34" fill="none" stroke="#737999" stroke-linecap="round" stroke-linejoin="round" stroke-width="2"/><path d="M157.58,100.68c-.31,2.77.3,9,2.39,11.72" fill="none" stroke="#b5545c" stroke-linecap="round" stroke-linejoin="round" stroke-width="2"/><path d="M140.72,97c1-2.37,3-3.8,4.39-3.19s1.67,3,.64,5.39-3,3.8-4.39,3.19S139.68,99.38,140.72,97Z" fill="#b5545c" fill-rule="evenodd"/><path d="M164.47,102.41c1-2.37,3-3.8,4.39-3.2s1.67,3,.64,5.39-3,3.8-4.39,3.19S163.43,104.77,164.47,102.41Z" fill="#b5545c" fill-rule="evenodd"/><path d="M140.6,119.81a10.24,10.24,0,0,1-7.1-8.82" fill="none" stroke="#b5545c" stroke-linecap="round" stroke-linejoin="round" stroke-width="2"/><path d="M135.11,130.77a31.48,31.48,0,0,1-20.55-13.72" fill="none" stroke="#b5545c" stroke-linecap="round" stroke-linejoin="round" stroke-width="2"/><path d="M117.54,92.2a12,12,0,0,1-4.25.77,12.2,12.2,0,0,1-3.28-.45" fill="none" stroke="#b5545c" stroke-linecap="round" stroke-linejoin="round" stroke-width="2"/><path d="M110.94,88.13a7.13,7.13,0,1,1,9-6.88" fill="none" stroke="#b5545c" stroke-linecap="round" stroke-linejoin="round" stroke-width="2"/><path d="M218,255.29l-33.27-5.08-20.65-26.52" fill="none" stroke="#b5545c" stroke-linecap="round" stroke-linejoin="round" stroke-width="2"/><path d="M231.26,174.55c1.24-2.7,4.68-8.62,3.49-11.2s-9.43-6.07-8.42-8.54,5.59-9.15,5.59-9.15" fill="none" stroke="#b5545c" stroke-linecap="round" stroke-linejoin="round" stroke-width="2"/><path d="M245.74,135.92l-6.31,12.9" fill="none" stroke="#b5545c" stroke-linecap="round" stroke-linejoin="round" stroke-width="2"/><path d="M253.24,147.2l-5.13,7.28" fill="none" stroke="#b5545c" stroke-linecap="round" stroke-linejoin="round" stroke-width="2"/><path d="M296.59,260.86l9.16,7" fill="none" stroke="#b5545c" stroke-linecap="round" stroke-linejoin="round" stroke-width="2"/><path d="M300.84,282,294,275.68" fill="none" stroke="#b5545c" stroke-linecap="round" stroke-linejoin="round" stroke-width="2"/><path d="M259.75,37.17h11.53c.54,0,1,.64,1,1.43v7.19c0,.79-.45,1.42-1,1.42H259.75c-.55,0-1-.63-1-1.42V38.6C258.76,37.81,259.2,37.17,259.75,37.17Z" fill="#ff3274" fill-rule="evenodd"/><path d="M277.26,42.65v4.42c0,.13-.09.18-.19.12L273.23,45l-3.83-2.21c-.11-.06-.11-.16,0-.22l3.83-2.22,3.84-2.21a.12.12,0,0,1,.19.11Z" fill="#ff3274" fill-rule="evenodd"/><path d="M251,42.19a17,17,0,1,1,17,17A17,17,0,0,1,251,42.19Z" fill="none" stroke="#ff3274" stroke-linecap="round" stroke-linejoin="round" stroke-width="2"/><path d="M29.09,1H272.68a24.73,24.73,0,0,1,24.74,24.74V149.81a24.74,24.74,0,0,1-24.74,24.74H29.09A24.74,24.74,0,0,1,4.36,149.81V25.74A24.73,24.73,0,0,1,29.09,1Z" fill="none" stroke="#9b9b9b" stroke-linecap="round" stroke-linejoin="round" stroke-width="2"/><path d="M295.83,16.87H6.2" fill="none" stroke="#9b9b9b" stroke-linecap="round" stroke-linejoin="round" stroke-width="2"/><path d="M22.14,9.23a3.52,3.52,0,1,1,3.52,3.51A3.52,3.52,0,0,1,22.14,9.23Z" fill="none" stroke="#ff3274" stroke-linecap="round" stroke-linejoin="round" stroke-width="2"/><path d="M36,9.23a3.52,3.52,0,1,1,3.52,3.51A3.51,3.51,0,0,1,36,9.23Z" fill="none" stroke="#ff3274" stroke-linecap="round" stroke-linejoin="round" stroke-width="2"/><path d="M49.89,9.23a3.52,3.52,0,1,1,3.52,3.51A3.52,3.52,0,0,1,49.89,9.23Z" fill="none" stroke="#ff3274" stroke-linecap="round" stroke-linejoin="round" stroke-width="2"/><path d="M486.2,300.18,393.69,584" fill="none" stroke="#aadaf1" stroke-linecap="round" stroke-linejoin="round" stroke-width="2"/><path d="M561.31,300.18,468.8,584" fill="none" stroke="#aadaf1" stroke-linecap="round" stroke-linejoin="round" stroke-width="2"/><path d="M561.31,300.18,653.81,584" fill="none" stroke="#aadaf1" stroke-linecap="round" stroke-linejoin="round" stroke-width="2"/><path d="M486.2,300.18,578.7,584" fill="none" stroke="#aadaf1" stroke-linecap="round" stroke-linejoin="round" stroke-width="2"/><path d="M326,115.4H469.39a11.19,11.19,0,0,1,11.19,11.19V245a11.19,11.19,0,0,1-11.19,11.19H326A11.19,11.19,0,0,1,314.83,245V126.59A11.19,11.19,0,0,1,326,115.4Z" fill="#aadaf1" fill-rule="evenodd"/><path d="M326,115.39a11.18,11.18,0,0,0-11.19,11.18V245A11.19,11.19,0,0,0,326,256.14h7.19c-.06-.68-.22-1.34-.22-2V115.39Z" fill="#8dc5e0" fill-rule="evenodd"/><path d="M377.82,221.28h48.41l27.11,61.66H403.22Z" fill="#8dc5e0" fill-rule="evenodd"/><path d="M539.54,239.49h39.88v43.45H539.54Z" fill="#8dc5e0" fill-rule="evenodd"/><path d="M568.79,261.21a10.29,10.29,0,1,1,10.29,10.29A10.29,10.29,0,0,1,568.79,261.21Z" fill="none" stroke="#8dc5e0" stroke-linecap="round" stroke-linejoin="round" stroke-width="2"/><path d="M539.54,246.89h39.54" fill="none" stroke="#aadaf1" stroke-linecap="round" stroke-linejoin="round" stroke-width="2"/><path d="M29.22,1H272.81a24.74,24.74,0,0,1,24.74,24.74V149.81a24.74,24.74,0,0,1-24.74,24.74H29.22A24.74,24.74,0,0,1,4.49,149.81V25.74A24.73,24.73,0,0,1,29.22,1Z" fill="#fff" fill-rule="evenodd" opacity="0.25" style="isolation:isolate"/></g></g></svg>